HIERARCHY
ROOT Hips
{
	OFFSET 0.000000 0.000000 0.000000
	CHANNELS 6 Xposition Yposition Zposition Xrotation Yrotation Zrotation
	JOINT LeftUpLeg_virtual
	{
		OFFSET 0.000000 0.000000 0.000000
		CHANNELS 3 Xrotation Yrotation Zrotation
		JOINT LeftUpLeg
		{
			OFFSET 11.394100 -6.187798 -0.413800
			CHANNELS 3 Xrotation Yrotation Zrotation
			JOINT LeftLeg
			{
				OFFSET 0.430247 -32.302673 3.732800
				CHANNELS 3 Xrotation Yrotation Zrotation
				JOINT LeftFoot
				{
					OFFSET -0.430247 -48.264931 -6.423300
					CHANNELS 3 Xrotation Yrotation Zrotation
					JOINT LeftToeBase
					{
						OFFSET 4.230900 -16.068199 23.438400
						CHANNELS 3 Xrotation Yrotation Zrotation
						JOINT LeftToe_End
						{
							OFFSET 4.510700 0.695400 19.974600
							CHANNELS 3 Xrotation Yrotation Zrotation
							End Site
							{
								OFFSET 0 0 0
							}
						}
					}
				}
			}
		}
	}
	JOINT RightUpLeg_virtual
	{
		OFFSET 0.000000 0.000000 0.000000
		CHANNELS 3 Xrotation Yrotation Zrotation
		JOINT RightUpLeg
		{
			OFFSET -11.333700 -6.187798 -0.413800
			CHANNELS 3 Xrotation Yrotation Zrotation
			JOINT RightLeg
			{
				OFFSET -0.430392 -32.302628 3.733000
				CHANNELS 3 Xrotation Yrotation Zrotation
				JOINT RightFoot
				{
					OFFSET 0.430392 -48.264973 -6.423500
					CHANNELS 3 Xrotation Yrotation Zrotation
					JOINT RightToeBase
					{
						OFFSET -4.230900 -16.068199 23.438400
						CHANNELS 3 Xrotation Yrotation Zrotation
						JOINT RightToe_End
						{
							OFFSET -4.510700 0.695400 19.974600
							CHANNELS 3 Xrotation Yrotation Zrotation
							End Site
							{
								OFFSET 0 0 0
							}
						}
					}
				}
			}
		}
	}
	JOINT Spine_virtual
	{
		OFFSET 0.000000 0.000000 0.000000
		CHANNELS 3 Xrotation Yrotation Zrotation
		JOINT Spine
		{
			OFFSET -0.002400 12.777504 0.315300
			CHANNELS 3 Xrotation Yrotation Zrotation
			JOINT Spine1
			{
				OFFSET -0.002067 5.816869 0.032633
				CHANNELS 3 Xrotation Yrotation Zrotation
				JOINT Spine1_split
				{
					OFFSET -0.002067 5.816869 0.032633
					CHANNELS 3 Xrotation Yrotation Zrotation
					JOINT Spine2
					{
						OFFSET -0.002067 5.816869 0.032633
						CHANNELS 3 Xrotation Yrotation Zrotation
						JOINT Neck_virtual
						{
							OFFSET 0.000000 0.000000 0.000000
							CHANNELS 3 Xrotation Yrotation Zrotation
							JOINT Neck
							{
								OFFSET -0.003700 21.199493 -0.826900
								CHANNELS 3 Xrotation Yrotation Zrotation
								JOINT Head
								{
									OFFSET 0.000000 20.442200 4.834800
									CHANNELS 3 Xrotation Yrotation Zrotation
									JOINT HeadTop_End
									{
										OFFSET 0.000000 34.668396 4.968400
										CHANNELS 3 Xrotation Yrotation Zrotation
										End Site
										{
											OFFSET 0 0 0
										}
									}
								}
							}
						}
						JOINT LeftShoulder_virtual
						{
							OFFSET 0.000000 0.000000 0.000000
							CHANNELS 3 Xrotation Yrotation Zrotation
							JOINT LeftShoulder
							{
								OFFSET 3.288150 8.794197 -1.372250
								CHANNELS 3 Xrotation Yrotation Zrotation
								JOINT LeftShoulder_split
								{
									OFFSET 3.288150 8.794197 -1.372250
									CHANNELS 3 Xrotation Yrotation Zrotation
									JOINT LeftArm
									{
										OFFSET 11.953299 -2.279007 -0.146200
										CHANNELS 3 Xrotation Yrotation Zrotation
										JOINT LeftForeArm
										{
											OFFSET 18.448900 0.000000 0.000000
											CHANNELS 3 Xrotation Yrotation Zrotation
											JOINT LeftHand
											{
												OFFSET 29.527798 0.000000 0.000000
												CHANNELS 3 Xrotation Yrotation Zrotation
												End Site
												{
													OFFSET 0 0 0
												}
											}
										}
									}
								}
							}
						}
						JOINT RightShoulder_virtual
						{
							OFFSET 0.000000 0.000000 0.000000
							CHANNELS 3 Xrotation Yrotation Zrotation
							JOINT RightShoulder
							{
								OFFSET -3.249400 8.794197 -1.372250
								CHANNELS 3 Xrotation Yrotation Zrotation
								JOINT RightShoulder_split
								{
									OFFSET -3.249400 8.794197 -1.372250
									CHANNELS 3 Xrotation Yrotation Zrotation
									JOINT RightArm
									{
										OFFSET -11.953299 -2.279007 -0.146200
										CHANNELS 3 Xrotation Yrotation Zrotation
										JOINT RightForeArm
										{
											OFFSET -18.448900 0.000000 0.000000
											CHANNELS 3 Xrotation Yrotation Zrotation
											JOINT RightHand
											{
												OFFSET -29.527802 0.000000 0.000000
												CHANNELS 3 Xrotation Yrotation Zrotation
												End Site
												{
													OFFSET 0 0 0
												}
											}
										}
									}
								}
							}
						}
					}
				}
			}
		}
	}
}
MOTION
Frames: 4
Frame Time: 0.03333333
-0.652805 101.614609 0.228561 0.000000 0.000000 0.000000 -5.638006 -6.005337 3.490419 -13.185994 10.538185 6.527080 15.958556 8.306469 1.378093 5.415384 0.577583 -4.516092 -0.011036 0.284897 -1.621031 0.000000 0.000000 0.000000 -5.179975 -4.481086 3.715103 1.887422 -14.543561 -6.692947 17.508068 -10.198012 -6.848876 -13.245139 -4.353678 6.039348 -4.896092 -0.192724 -1.351525 0.000000 0.000000 0.000000 -5.800164 -6.707497 3.216270 5.202594 1.567128 -2.245840 0.844087 0.333793 -0.340743 0.813065 0.344126 -0.017552 0.000000 0.000000 0.000000 1.147539 0.735950 -0.620980 1.547980 5.719203 0.243525 4.301926 -10.683623 3.617404 0.000000 0.000000 0.000000 1.005019 0.720414 -0.858868 -0.153713 -15.685881 -18.084377 -1.370112 -1.274713 -3.005320 13.802287 -1.910685 -32.827556 99.788845 -89.423248 99.347219 0.000000 0.000000 0.000000 0.887382 0.624985 -0.746123 0.461712 15.390043 12.434196 2.182695 2.901554 0.513816 7.482726 21.058228 38.513712 -173.889813 78.860162 173.313455 0.000000 0.000000 0.000000 
-0.208176 101.406387 0.063656 0.000000 0.000000 0.000000 -5.623495 -6.299271 3.529877 -13.180962 9.905130 6.306903 16.372580 8.133180 1.521547 4.995492 0.766524 -4.730848 -0.138145 0.243418 -1.495583 0.000000 0.000000 0.000000 -5.373531 -4.473531 3.745735 1.688801 -14.969806 -6.967869 17.552478 -10.207780 -6.865898 -13.263881 -4.376451 5.854118 -4.299048 -0.298316 -1.355507 0.000000 0.000000 0.000000 -5.914110 -6.765693 3.150590 5.310097 1.527120 -2.200209 0.898164 0.301224 -0.302897 0.784497 0.381863 -0.006236 0.000000 0.000000 0.000000 1.102161 0.691106 -0.589383 1.487119 5.670442 0.185801 4.294526 -10.573087 3.544283 0.000000 0.000000 0.000000 1.006024 0.684409 -0.837245 -0.160068 -15.704791 -18.068335 -1.198910 -1.331658 -2.985303 13.907100 -1.714094 -32.979626 105.615522 -89.327400 105.158419 0.000000 0.000000 0.000000 0.911387 0.613221 -0.728863 0.459329 15.563151 12.558353 2.214453 2.997036 0.712732 7.600319 21.229258 38.651597 -173.841264 79.124723 173.267419 0.000000 0.000000 0.000000 
0.319891 100.928658 0.051865 0.000000 0.000000 0.000000 -5.653700 -6.710830 3.639001 -13.607193 9.461428 6.036818 17.606093 7.992192 1.635909 3.987764 1.328022 -4.928206 -0.240961 0.234793 -1.455171 0.000000 0.000000 0.000000 -5.555519 -4.469164 3.836019 1.145675 -15.250936 -7.478188 18.184477 -10.142343 -6.828996 -13.834808 -4.517185 5.633965 -3.918981 -0.335584 -1.411142 0.000000 0.000000 0.000000 -6.080275 -6.878619 3.155177 5.449178 1.387264 -2.171524 0.966795 0.193825 -0.230089 0.751829 0.389995 -0.005715 0.000000 0.000000 0.000000 1.074960 0.575700 -0.518859 1.489773 5.614802 0.057632 4.256757 -10.491567 3.231643 0.000000 0.000000 0.000000 1.030418 0.572367 -0.770324 -0.172760 -15.729386 -18.083068 -1.065444 -1.349611 -2.893192 14.232948 -1.296912 -33.147721 125.267022 -89.096908 124.796299 0.000000 0.000000 0.000000 0.933121 0.522207 -0.660875 0.470731 15.688685 12.641977 2.210102 3.061557 0.771354 7.625124 21.738165 38.911195 -173.804190 79.554055 173.276039 0.000000 0.000000 0.000000 
0.867813 100.288551 0.105251 0.000000 0.000000 0.000000 -5.723377 -7.159073 3.817029 -14.429026 9.272201 5.707435 19.302927 7.881028 1.697615 2.542097 2.153491 -5.123181 -0.255767 0.256829 -1.481251 0.000000 0.000000 0.000000 -5.692252 -4.609431 3.986807 0.273418 -15.327614 -8.177611 19.231040 -9.947080 -6.745136 -14.713568 -4.700041 5.458135 -3.864894 -0.312485 -1.506549 0.000000 0.000000 0.000000 -6.213898 -7.059109 3.229676 5.567817 1.180979 -2.169322 1.032621 0.031073 -0.136205 0.731335 0.439764 -0.009745 0.000000 0.000000 0.000000 1.057643 0.407889 -0.427667 1.545383 5.557768 -0.128998 4.129442 -10.429748 2.692711 0.000000 0.000000 0.000000 1.070892 0.399672 -0.668743 -0.184592 -15.765646 -18.112991 -1.005796 -1.365665 -2.802052 14.734701 -0.701280 -33.331678 142.541718 -88.631403 142.062908 0.000000 0.000000 0.000000 0.944874 0.366079 -0.554235 0.509260 15.754151 12.670769 2.172376 3.026086 0.703172 7.490702 22.446010 39.309829 -173.746243 80.054755 173.296912 0.000000 0.000000 0.000000 
